<svg width="19" height="19" viewBox="0 0 19 19" fill="none" xmlns="http://www.w3.org/2000/svg">
<path d="M10.308 13.471L10.384 12.407L11.311 11.878C12.2011 11.3622 13.0188 10.7307 13.743 9.99998C16.383 7.35898 17.189 4.25398 16.218 3.28198C15.246 2.31198 12.141 3.11598 9.49999 5.75698C8.73999 6.51698 8.10299 7.34698 7.62199 8.18898L7.09199 9.11598L6.02899 9.19198C5.15665 9.25316 4.32886 9.60044 3.67399 10.18C4.92394 10.73 6.06037 11.5083 7.02499 12.475C8.00499 13.455 8.77699 14.592 9.31999 15.826C9.89952 15.1711 10.2468 14.3433 10.308 13.471ZM7.33499 16.3C7.13388 16.5734 6.91224 16.8312 6.67199 17.071C5.49999 18.243 3.73199 18.596 1.36799 18.131C0.90399 15.768 1.25799 14 2.42799 12.828C2.67599 12.582 2.93399 12.36 3.19999 12.165C2.3802 11.7645 1.50413 11.4914 0.60199 11.355C0.892427 10.4433 1.3976 9.61473 2.07499 8.93898C3.09339 7.91804 4.44655 7.2997 5.88499 7.19798C6.48877 6.15316 7.22857 5.19311 8.08499 4.34298C11.405 1.02298 15.679 -0.0840244 17.632 1.86798C19.584 3.82098 18.476 8.09497 15.157 11.414C14.3069 12.2704 13.3468 13.0102 12.302 13.614C12.2003 15.0524 11.5819 16.4056 10.561 17.424C9.88581 18.1023 9.05707 18.6079 8.14499 18.898C8.00861 17.9958 7.73547 17.1198 7.33499 16.3ZM5.60999 13.89C5.44896 13.7286 5.26741 13.589 5.06999 13.475C4.63799 13.625 4.12999 13.955 3.66499 14.419C3.44599 14.639 3.17799 15.378 3.17499 16.324C4.12099 16.321 4.86299 16.05 5.07999 15.834C5.54499 15.368 5.87499 14.861 6.02399 14.429C5.91024 14.2316 5.77105 14.0501 5.60999 13.889V13.89ZM13.388 6.10998C13.2903 6.01825 13.2121 5.90783 13.1579 5.78527C13.1037 5.66271 13.0747 5.53052 13.0727 5.39654C13.0706 5.26256 13.0954 5.12953 13.1458 5.00535C13.1961 4.88117 13.2709 4.76837 13.3657 4.67365C13.4605 4.57894 13.5733 4.50424 13.6975 4.45399C13.8217 4.40374 13.9548 4.37897 14.0888 4.38114C14.2228 4.38332 14.3549 4.4124 14.4774 4.46665C14.6 4.52091 14.7103 4.59923 14.802 4.69698C14.9744 4.88714 15.0671 5.13633 15.0609 5.39295C15.0547 5.64957 14.95 5.89397 14.7685 6.07555C14.5871 6.25712 14.3428 6.36197 14.0861 6.36838C13.8295 6.37479 13.5803 6.28227 13.39 6.10998H13.388Z" fill="#0F172A"/>
</svg>
